<svg width="240" height="240" viewBox="0 0 240 240" fill="none" xmlns="http://www.w3.org/2000/svg">
<rect width="240" height="240" rx="56" fill="#0033AA"/>
<path d="M154.444 51.3018C161.308 43.5632 173.145 42.8536 180.884 49.7168C194.739 62.0045 204.53 78.2147 208.957 96.1963C213.384 114.178 212.239 133.081 205.673 150.397C199.107 167.712 187.43 182.622 172.193 193.148C156.956 203.672 138.879 209.315 120.36 209.327C101.842 209.339 83.7572 203.719 68.5068 193.214C53.2564 182.708 41.5608 167.813 34.9727 150.506C28.3846 133.199 27.2157 114.297 31.6201 96.3096C36.0246 78.3223 45.7946 62.0993 59.6338 49.794C67.3636 42.9211 79.2012 43.616 86.0742 51.3457C92.9472 59.0755 92.2531 70.9131 84.5234 77.7862C76.3619 85.0432 70.5995 94.6108 68.002 105.219C65.4046 115.827 66.0943 126.974 69.9795 137.181C73.8648 147.387 80.7621 156.172 89.7559 162.367C98.7497 168.563 109.416 171.877 120.337 171.87C131.258 171.863 141.919 168.535 150.905 162.328C159.891 156.121 166.777 147.328 170.649 137.116C174.522 126.904 175.197 115.756 172.586 105.151C169.975 94.5468 164.2 84.9868 156.029 77.7403C148.291 70.8771 147.581 59.0403 154.444 51.3018Z" fill="white"/>
<circle cx="120" cy="52.1545" r="21.0698" fill="white"/>
<circle cx="120" cy="52.1545" r="21.0698" fill="#06DEC0"/>
</svg>
